<svg width="2049" height="175" viewBox="0 0 2049 175" fill="none" xmlns="http://www.w3.org/2000/svg">
<path fill-rule="evenodd" clip-rule="evenodd" d="M1299.14 8.61149C1511.82 -14.2059 1725.19 11.2433 1890.61 50.6878C1776.21 102.645 1594.18 137.055 1299.14 8.61149Z" fill="#4C08DB" fill-opacity="0.5"/>
<path fill-rule="evenodd" clip-rule="evenodd" d="M2048 97.0059V174.69C1916.33 110.393 1701.85 30.8742 1460.24 0.005665C1692.3 -0.5982 1910.13 47.1716 2048 97.0059Z" fill="#4C08DB" fill-opacity="0.5"/>
<path fill-rule="evenodd" clip-rule="evenodd" d="M1812.87 33.955C1617.35 -3.73898 1373.2 -18.5181 1144.11 34.4763C1108.87 42.6277 1074.92 50.6167 1042.09 58.3412C1005.87 66.8644 971.02 75.0655 937.316 82.8075C1245.78 90.1338 1557.51 73.2669 1812.87 33.955Z" fill="#4C08DB" fill-opacity="0.5"/>
<path fill-rule="evenodd" clip-rule="evenodd" d="M1157.12 31.5405C1152.78 32.4949 1148.44 33.4732 1144.11 34.4758C1108.87 42.6273 1074.92 50.6162 1042.09 58.3407C887.591 94.6972 757.993 125.194 636.143 139.189C774.161 175.706 911.005 195.247 1157.12 31.5405Z" fill="#4C08DB" fill-opacity="0.5"/>
<path fill-rule="evenodd" clip-rule="evenodd" d="M0 96.4304V16.4302C145.256 89.1107 269.071 127.066 388.745 141.027C222.493 150.401 79.209 122.762 0 96.4304Z" fill="#4C08DB"/>
<path fill-rule="evenodd" clip-rule="evenodd" d="M1419.28 0.620361C1327.83 3.14155 1234.79 13.4995 1144.11 34.4762C1108.87 42.6277 1074.92 50.6167 1042.09 58.3411C625.797 156.302 390.296 211.72 0 16.43V0.620361H1419.28ZM1510.5 0.620361C1723.49 6.34418 1920.13 50.7871 2048 97.0058V0.620361H1510.5Z" fill="white"/>
</svg>
