<svg width="53" height="53" viewBox="0 0 53 53" fill="none" xmlns="http://www.w3.org/2000/svg">
<circle cx="26.5" cy="26.5" r="26.5" fill="url(#paint0_linear)"/>
<path fill-rule="evenodd" clip-rule="evenodd" d="M19.7184 38.4586L22.139 33.2677L24.5432 38.4236C25.2722 39.9869 26.5283 41.1362 28.0011 41.7587C31.3209 43.2167 35.2141 41.7616 36.7543 38.4586L45.2387 20.2637C46.8006 16.9142 45.3515 12.9326 42.0019 11.3707C38.6523 9.80875 34.6708 11.2579 33.1088 14.6075L30.6569 19.8656L28.1887 14.5725C26.6268 11.2229 22.6452 9.77375 19.2957 11.3357C17.6132 12.1202 16.4102 13.5152 15.8274 15.134L7.58854 32.8023C6.02661 36.1519 7.47578 40.1335 10.8254 41.6954C14.1749 43.2573 18.1565 41.8082 19.7184 38.4586ZM22.1088 33.3318L19.7181 38.4586C18.1562 41.8081 14.1746 43.2573 10.8251 41.6954C10.6267 41.6029 10.4351 41.5019 10.2503 41.3931C8.79113 40.048 7.87707 38.1205 7.87707 35.9795C7.87707 31.914 11.1728 28.6184 15.2382 28.6184C18.3703 28.6184 21.0455 30.5745 22.1088 33.3318ZM42.5748 11.6718C44.0347 13.0169 44.9493 14.9449 44.9493 17.0866C44.9493 21.152 41.6536 24.4477 37.5882 24.4477C34.4563 24.4477 31.7813 22.4919 30.7179 19.735L33.1089 14.6075C34.6708 11.2579 38.6524 9.80873 42.002 11.3707C42.1996 11.4628 42.3906 11.5634 42.5748 11.6718Z" fill="white"/>
<defs>
<linearGradient id="paint0_linear" x1="12.1757" y1="8.59459" x2="46.5541" y2="63.027" gradientUnits="userSpaceOnUse">
<stop stop-color="#4C08DB"/>
<stop offset="0.87771" stop-color="#38B2AC"/>
</linearGradient>
</defs>
</svg>
