<svg width="69" height="52" viewBox="0 0 69 52" fill="none" xmlns="http://www.w3.org/2000/svg">
<path fill-rule="evenodd" clip-rule="evenodd" d="M64.1451 0.022531C64.4366 -0.00751035 64.7305 -0.00751035 65.022 0.022531L34.0295 30.9723L3.12256 0.193642C3.49104 0.085999 3.87233 0.0284454 4.25617 0.022531H64.1451ZM37.0456 34.0095L68.1878 2.99561C68.3408 3.41448 68.4274 3.8547 68.4444 4.30033V47.0781C68.4444 48.2126 67.9938 49.3007 67.1915 50.103C66.3893 50.9052 65.3012 51.3559 64.1667 51.3559H4.27778C3.14324 51.3559 2.05517 50.9052 1.25293 50.103C0.450693 49.3007 0 48.2126 0 47.0781V4.30033C0.00453163 3.93895 0.0548399 3.57961 0.149722 3.23088L31.0139 34.0095C31.8154 34.8062 32.8996 35.2534 34.0297 35.2534C35.1598 35.2534 36.2441 34.8062 37.0456 34.0095ZM4.235 47.0781H7.20806L22.8006 31.6139L19.7847 28.5981L4.235 44.0195V47.0781ZM61.1294 47.0781H64.1239L64.1025 44.0195L48.5528 28.5981L45.5369 31.6139L61.1294 47.0781Z" fill="black"/>
</svg>
