<svg width="75" height="76" viewBox="0 0 75 76" fill="none" xmlns="http://www.w3.org/2000/svg">
<path d="M37.5005 0.380493C16.9644 0.380493 0.312988 17.245 0.312988 38.0441C0.312988 58.8431 16.9644 75.7077 37.5005 75.7077C58.0366 75.7077 74.688 58.8431 74.688 38.0441C74.688 17.245 58.0366 0.380493 37.5005 0.380493ZM40.1567 56.2033C40.1567 56.5732 39.8579 56.8759 39.4927 56.8759H35.5083C35.1431 56.8759 34.8442 56.5732 34.8442 56.2033V33.3361C34.8442 32.9662 35.1431 32.6636 35.5083 32.6636H39.4927C39.8579 32.6636 40.1567 32.9662 40.1567 33.3361V56.2033ZM37.5005 27.2831C36.4578 27.2615 35.4651 26.8269 34.7352 26.0724C34.0054 25.318 33.5966 24.3039 33.5966 23.2477C33.5966 22.1915 34.0054 21.1773 34.7352 20.4229C35.4651 19.6685 36.4578 19.2338 37.5005 19.2123C38.5431 19.2338 39.5359 19.6685 40.2657 20.4229C40.9956 21.1773 41.4044 22.1915 41.4044 23.2477C41.4044 24.3039 40.9956 25.318 40.2657 26.0724C39.5359 26.8269 38.5431 27.2615 37.5005 27.2831Z" fill="black"/>
</svg>
