<svg width="62" height="55" viewBox="0 0 62 55" fill="none" xmlns="http://www.w3.org/2000/svg">
<path d="M61.3316 51.2628L32.8941 1.41558C32.4702 0.674793 31.7388 0.307861 31.0005 0.307861C30.2622 0.307861 29.524 0.674793 29.107 1.41558L0.669457 51.2628C-0.171363 52.7444 0.881371 54.586 2.56301 54.586H59.438C61.1197 54.586 62.1724 52.7444 61.3316 51.2628ZM28.813 20.8006C28.813 20.496 29.0591 20.2468 29.3599 20.2468H32.6411C32.9419 20.2468 33.188 20.496 33.188 20.8006V33.5394C33.188 33.844 32.9419 34.0932 32.6411 34.0932H29.3599C29.0591 34.0932 28.813 33.844 28.813 33.5394V20.8006ZM31.0005 45.1704C30.1419 45.1526 29.3243 44.7947 28.7233 44.1734C28.1222 43.5522 27.7856 42.717 27.7856 41.8472C27.7856 40.9775 28.1222 40.1423 28.7233 39.521C29.3243 38.8998 30.1419 38.5418 31.0005 38.5241C31.8592 38.5418 32.6767 38.8998 33.2778 39.521C33.8788 40.1423 34.2155 40.9775 34.2155 41.8472C34.2155 42.717 33.8788 43.5522 33.2778 44.1734C32.6767 44.7947 31.8592 45.1526 31.0005 45.1704V45.1704Z" fill="black"/>
</svg>
